<?xml version="1.0" encoding="utf-8"?>
<!-- Generator: Adobe Illustrator 23.0.0, SVG Export Plug-In . SVG Version: 6.00 Build 0)  -->
<svg version="1.1" id="Layer_1" xmlns="http://www.w3.org/2000/svg" xmlns:xlink="http://www.w3.org/1999/xlink" x="0px" y="0px"
	 viewBox="0 0 500 500" style="enable-background:new 0 0 500 500;" xml:space="preserve">
<style type="text/css">
	.st0{fill:#316D11;}
</style>
<path class="st0" d="M344.97,398.41c0,0,34.65-65.45-3.83-133.27c0,0-3.53,17.59-16.73,38.08c0,0,8.17-53.85-38.07-99.93
	C242.86,159.97,163.03,90.28,186.5,0c0,0-74.9,74.05-66.39,149.88c0,0-14.2-9.05-16.68-22.3c0,0-36.31,167.27,65.7,240.57
	c0,0-17.49,0.38-40.64-4.91c0,0,87.34,111.56,200.4,56.16c0,0-130.05-55.2-157.18-229.59c0,0,35.03,151.95,164.41,219.53
	c0,0,47.41,30.69,63.3,90.61l15.84-4.77C415.26,495.18,411.45,449.92,344.97,398.41z"/>
</svg>
