<?xml version="1.0" encoding="utf-8"?>
<!-- Generator: Adobe Illustrator 23.0.0, SVG Export Plug-In . SVG Version: 6.00 Build 0)  -->
<svg version="1.1" id="Layer_1" xmlns="http://www.w3.org/2000/svg" xmlns:xlink="http://www.w3.org/1999/xlink" x="0px" y="0px"
	 viewBox="0 0 500 500" style="enable-background:new 0 0 500 500;" xml:space="preserve">
<style type="text/css">
	.st0{fill:#316D11;}
</style>
<path class="st0" d="M137.58,184.43c0,0,81.12,172.06,216.89,241.79c0,0,50.45-80.25,9.84-164.53c0,0-7.81,25.47-13.95,34.64
	c0,0,7.38-48.87-25.72-74.46c0,0,2.88,19.96-4.38,27.92c0,0-9.16-43.54-42.66-56.28c0,0,8.83,16.64,5,27.05
	c0,0-20.94-40.4-45.14-51.69c0,0,4.3,11.82,0.58,18.72c0,0-28.43-25.44-78.9-56.25C108.65,100.52,74.39,37.48,72.05,0
	c0,0-30.82,162.71,12.56,270.46c0,0-7.57-0.82-16.17-6.36c0,0,9.58,30.11,31.12,42.19c0,0-4.5,4.26-13.39,7.47
	c0,0,13.69,10.95,34.27,25.63c0,0-9.86,6.71-13.47,10.1c0,0,19.57,19.03,35.99,26.56c0,0-10.62,3.17-15.14,7.41
	c0,0,30.68,28.15,55.95,33.32c0,0-8.05,2.6-20.51,10.76c0,0,68.07,66.2,179.96,21.43c0,0,75.32,58.48,92.24,50.24
	c16.92-8.24-62.57-45.81-87.53-60.62C322.98,423.78,176.9,328.88,137.58,184.43z"/>
</svg>
